# xmcd CD database file
#
# Track frame offsets:
#	150
#	12155
#	22143
#	31888
#	43351
#	55516
#	67975
#	79430
#	90200
#	102445
#	112494
#	125042
#	135770
#	146496
#	156857
#	167191
#	177699
#	189562
#	200243
#	209568
#	221213
#	232487
#	246923
#	258599
#	270076
#
# Disc length: 3741 seconds
#
# Revision: 0
# Processed by: cddbd v1.5.1PL2 Copyright (c) Steve Scherf et al.
# Submitted via: CDex 1.51
#
DISCID=840e9b19
DTITLE=Jimmy Reed - Essential Boss Man [CD2]
DYEAR=1900
DGENRE=Blues
TTITLE0=Honest I Do
TTITLE1=My Bitter Seed
TTITLE2=Ends And Odds (Instrumental)
TTITLE3=You're Something Else
TTITLE4=A String To Your Heart
TTITLE5=Go On To School
TTITLE6=You Got Me Crying
TTITLE7=Down In Virginia
TTITLE8=I'm Gonna Get My Baby
TTITLE9=I Wanna Be Loved
TTITLE10=Caress Me Baby
TTITLE11=I Know It's A Sin
TTITLE12=You'n That Sack
TTITLE13=Going To New York
TTITLE14=I Told You, Baby
TTITLE15=Take Out Some Insurance
TTITLE16=I'm Nervous
TTITLE17=Baby, What You Want Me To Do
TTITLE18=Goin' By The River. Part 1
TTITLE19=Where Can You Be
TTITLE20=Hush, Hush
TTITLE21=I Was (So) Wrong
TTITLE22=Blue, Blue Water
TTITLE23=Please Don't
TTITLE24=Found Love
EXTD=
EXTT0=
EXTT1=
EXTT2=
EXTT3=
EXTT4=
EXTT5=
EXTT6=
EXTT7=
EXTT8=
EXTT9=
EXTT10=
EXTT11=
EXTT12=
EXTT13=
EXTT14=
EXTT15=
EXTT16=
EXTT17=
EXTT18=
EXTT19=
EXTT20=
EXTT21=
EXTT22=
EXTT23=
EXTT24=
PLAYORDER=
